<svg width="123" height="93" viewBox="0 0 123 93" fill="none" xmlns="http://www.w3.org/2000/svg">
<path d="M20.15 83.63L31.63 73.4C32.1564 72.932 32.8356 72.6724 33.54 72.67H61.34C61.4625 72.6713 61.584 72.6482 61.6975 72.6019C61.8109 72.5557 61.914 72.4872 62.0006 72.4006C62.0872 72.314 62.1557 72.2109 62.2019 72.0975C62.2482 71.984 62.2713 71.8625 62.27 71.74V65.9H68V71.74C67.9921 73.5092 67.2858 75.2037 66.0348 76.4548C64.7837 77.7058 63.0892 78.4121 61.32 78.42H34.62L19.3 92.07C18.9004 92.4699 18.3917 92.7428 17.8376 92.8546C17.2835 92.9665 16.7087 92.9122 16.1853 92.6985C15.6619 92.4849 15.2133 92.1215 14.8957 91.6539C14.5781 91.1863 14.4056 90.6353 14.4 90.07V78.42H6.69C4.91905 78.4147 3.22199 77.7096 1.9688 76.4583C0.715604 75.2069 0.00791003 73.5109 0 71.74L0 28.59C0.0208181 26.8231 0.732652 25.1346 1.98307 23.886C3.23348 22.6375 4.92306 21.9282 6.69 21.91H43.35V27.66H6.69C6.44697 27.674 6.2174 27.7762 6.04435 27.9475C5.87129 28.1187 5.76664 28.3471 5.75 28.59V71.74C5.75089 71.8616 5.77613 71.9817 5.82422 72.0933C5.87231 72.205 5.94228 72.3058 6.03 72.39C6.20783 72.5617 6.44295 72.6614 6.69 72.67H17.27C18.0338 72.67 18.7664 72.9734 19.3065 73.5135C19.8466 74.0536 20.15 74.7862 20.15 75.55V83.63ZM20.36 64.15L29.6 36.24H38.43L47.67 64.15H40.35L38.8 59.07H29.15L27.64 64.15H20.36ZM30.79 53.24H37.16L34 41.81L30.79 53.24ZM76.63 13.35H85.33V11.11C85.33 10.927 85.4027 10.7515 85.5321 10.6221C85.6615 10.4927 85.837 10.42 86.02 10.42H90.67C90.7601 10.42 90.8494 10.4379 90.9326 10.4727C91.0157 10.5075 91.0911 10.5585 91.1544 10.6227C91.2177 10.6869 91.2676 10.763 91.3011 10.8467C91.3347 10.9304 91.3513 11.0199 91.35 11.11V13.35H101.11C101.2 13.35 101.289 13.3679 101.373 13.4027C101.456 13.4375 101.531 13.4885 101.594 13.5527C101.658 13.6169 101.708 13.693 101.741 13.7767C101.775 13.8604 101.791 13.9499 101.79 14.04V18.5C101.79 18.6803 101.718 18.8533 101.591 18.9808C101.463 19.1084 101.29 19.18 101.11 19.18H99.56C99.3552 20.4945 99.051 21.7915 98.65 23.06V23.12C98.1907 24.5509 97.6085 25.9394 96.91 27.27C96.2689 28.4568 95.5542 29.6024 94.77 30.7C94.1 31.7 93.36 32.6 92.57 33.53C93.7001 34.8961 94.9301 36.1763 96.25 37.36C97.849 38.7344 99.5506 39.9847 101.34 41.1C101.416 41.1478 101.481 41.2101 101.533 41.2833C101.584 41.3565 101.621 41.4391 101.64 41.5264C101.66 41.6137 101.662 41.7041 101.646 41.7922C101.631 41.8803 101.598 41.9645 101.55 42.04L99.16 45.77C99.1105 45.8522 99.0444 45.9232 98.9659 45.9785C98.8874 46.0337 98.7983 46.0719 98.7042 46.0908C98.61 46.1096 98.513 46.1086 98.4193 46.0878C98.3256 46.067 98.2373 46.0269 98.16 45.97C96.2001 44.7523 94.3348 43.3884 92.58 41.89V41.89C91.1537 40.6173 89.8171 39.2473 88.58 37.79C87.3 38.93 86.15 40 85 41C83.64 42.12 82.21 43.2 80.53 44.36C80.4546 44.4182 80.3679 44.4602 80.2754 44.4833C80.183 44.5063 80.0867 44.51 79.9928 44.494C79.8988 44.478 79.8092 44.4428 79.7296 44.3905C79.6499 44.3381 79.582 44.2699 79.53 44.19L77 40.53C76.9418 40.4546 76.8998 40.3679 76.8767 40.2754C76.8537 40.183 76.85 40.0867 76.866 39.9928C76.882 39.8988 76.9172 39.8092 76.9695 39.7295C77.0219 39.6499 77.0901 39.582 77.17 39.53C78.83 38.39 80.17 37.34 81.53 36.25C82.69 35.25 83.81 34.25 85.02 33.09C84.0106 31.662 83.0857 30.1761 82.25 28.64C81.2971 26.8126 80.5427 24.8882 80 22.9C79.9756 22.814 79.9684 22.724 79.9789 22.6352C79.9893 22.5464 80.0172 22.4606 80.0608 22.3825C80.1045 22.3045 80.1631 22.2359 80.2333 22.1805C80.3035 22.1252 80.3839 22.0842 80.47 22.06L84.74 20.87C84.826 20.8456 84.916 20.8384 85.0048 20.8489C85.0936 20.8593 85.1794 20.8871 85.2575 20.9308C85.3355 20.9745 85.4041 21.0331 85.4595 21.1033C85.5148 21.1735 85.5558 21.2539 85.58 21.34C86.267 23.9795 87.4256 26.4729 89 28.7L90.27 27C90.8182 26.205 91.3223 25.3804 91.78 24.53V24.53C92.2649 23.5947 92.6729 22.6215 93 21.62C93.2627 20.8188 93.483 20.0044 93.66 19.18H76.66C76.4787 19.18 76.3047 19.1087 76.1756 18.9815C76.0465 18.8542 75.9726 18.6813 75.97 18.5V14C75.97 13.817 76.0427 13.6415 76.1721 13.5121C76.3015 13.3827 76.477 13.31 76.66 13.31L76.63 13.35ZM103.63 70.17L88.26 56.51H61.54C59.7707 56.4995 58.0766 55.7927 56.8245 54.5425C55.5725 53.2923 54.8631 51.5993 54.85 49.83V6.69C54.8657 4.91398 55.5849 3.21663 56.85 1.97L57.05 1.79C58.2702 0.652939 59.8722 0.0142996 61.54 0L116.19 0C117.963 0.0161717 119.657 0.73552 120.9 2L121.09 2.2C122.23 3.42636 122.869 5.03563 122.88 6.71V49.83C122.867 51.5993 122.158 53.2923 120.905 54.5425C119.653 55.7927 117.959 56.4995 116.19 56.51H108.49V68.13C108.482 68.6952 108.307 69.2454 107.988 69.7121C107.669 70.1788 107.22 70.5414 106.697 70.7546C106.173 70.9678 105.599 71.0223 105.044 70.9112C104.49 70.8002 103.981 70.5285 103.58 70.13L103.63 70.17ZM91.26 51.49L102.73 61.72V53.64C102.73 52.8762 103.033 52.1436 103.574 51.6035C104.114 51.0634 104.846 50.76 105.61 50.76H116.19C116.311 50.7585 116.431 50.7331 116.543 50.685C116.655 50.6369 116.756 50.5673 116.84 50.48C116.93 50.3967 117.001 50.2962 117.051 50.1845C117.101 50.0728 117.128 49.9523 117.13 49.83V6.69C117.12 6.47823 117.043 6.27513 116.91 6.11L116.84 6C116.666 5.82689 116.435 5.72368 116.19 5.71H61.54C61.3327 5.74362 61.1425 5.84571 61 6H60.89C60.8027 6.08449 60.7331 6.18544 60.685 6.297C60.6369 6.40856 60.6114 6.52854 60.61 6.65V49.83C60.6087 49.9525 60.6318 50.074 60.6781 50.1875C60.7243 50.3009 60.7928 50.404 60.8794 50.4906C60.966 50.5772 61.0691 50.6457 61.1825 50.6919C61.296 50.7382 61.4175 50.7613 61.54 50.76H89.35C90.0549 50.7596 90.735 51.0196 91.26 51.49V51.49Z" fill="white"/>
</svg>
